<svg width="219" height="273" viewBox="0 0 219 273" fill="none" xmlns="http://www.w3.org/2000/svg">
<path d="M169.8 268H218.45L178.2 215.15C197.1 184.35 205.5 149.35 205.85 131.5H163.85C163.5 148.3 159.65 166.15 153 181.55L110.65 125.9C136.55 110.85 160 93.7 160 61.15C160 36.3 143.2 0.25 96.3 0.25C59.9 0.25 26.3 21.95 26.3 62.2C26.3 75.85 34.7 89.15 44.5 100.7L55.35 115.4C27.35 132.55 0.75 155.3 0.75 194.5C0.75 250.85 49.4 272.2 87.2 272.2C114.5 272.2 136.2 261.7 153.35 245.95L169.8 268ZM69.35 63.25C69.35 49.6 80.55 40.15 95.95 40.15C112.4 40.15 120.1 51.7 120.1 62.2C120.1 75.85 106.45 86 88.25 96.5C79.15 83.55 69.35 73.4 69.35 63.25ZM87.55 231.25C59.2 231.25 44.85 213.05 44.85 196.25C44.85 172.45 59.2 157.75 77.75 145.15L129.9 214.45C118.35 224.95 104 231.25 87.55 231.25Z" fill="white"/>
</svg>
