<?xml version="1.0" encoding="utf-8"?>
<!-- Generator: Adobe Illustrator 25.2.1, SVG Export Plug-In . SVG Version: 6.00 Build 0)  -->
<svg version="1.1" id="Layer_1" xmlns="http://www.w3.org/2000/svg" xmlns:xlink="http://www.w3.org/1999/xlink" x="0px" y="0px"
	 viewBox="0 0 727 733.9" style="enable-background:new 0 0 727 733.9;" xml:space="preserve">
<text transform="matrix(1 0 0 1 335.7566 -188.6257)" style="font-family:'NewFont-Regular'; font-size:12px;">Lorem ipsum</text>
<text transform="matrix(1 0 0 1 1160.7566 259.9851)" style="font-family:'NewFont-Regular'; font-size:12px;">Lorem ipsum</text>
<path d="M14.9,491.8c-1.3-96.5,70.1-164,146.8-188.4c-33.1-27.8-41-78.7-41-107.1c0-82,70.8-185.1,199-184.5
	c80.6,0.6,136.8,60.8,136.8,126.3c0,58.8-41.6,95.2-74.7,109.1l-29.8,12.6l76.7,54.9c17.8-87.3,68.7-181.8,163.3-180.5
	c62.1,0.6,124.3,46.9,122.9,122.3c-1.3,69.4-43,104.5-95.2,104.5c-43,0-78-40.3-78-82.7c0-74.7,63.5-74.7,63.5-103.8
	c0-12.6-12.6-18.5-27.8-18.5c-64.1,0-111.1,91.9-129.6,172.6l17.8,12.6c87.9,64.1,112.4,107.7,112.4,185.1
	c0,98.5-91.2,185.1-207.6,185.1c-9.3,0-27.1-1.3-37-3.3v-8.6h3.3c83.3,0,122.3-79.3,123.6-121c1.3-46.9-21.8-66.8-52.9-91.9
	c-12.6,79.3-70.8,182.5-200.3,181.8C98.2,667.7,15.6,589.7,14.9,491.8z M124,436.9c3.3,58.8,52.9,132.2,146.8,132.2
	c51.6,0,91.2-31.7,125.6-91.9L171,310.7C141.9,343.7,120.7,374.8,124,436.9z M234.4,136.1c-2.6,52.2,44.9,105.8,101.8,112.4
	C366,226.1,399,191,400.4,136.8c1.3-60.2-34.4-91.2-76.7-93.2C260.9,40.3,237.1,91.2,234.4,136.1z"/>
</svg>
