<?xml version="1.0" encoding="utf-8"?>
<!-- Generator: Adobe Illustrator 25.2.0, SVG Export Plug-In . SVG Version: 6.00 Build 0)  -->
<svg version="1.1" id="Layer_1" xmlns="http://www.w3.org/2000/svg" xmlns:xlink="http://www.w3.org/1999/xlink" x="0px" y="0px"
	 viewBox="0 0 1054.4 206.8" style="enable-background:new 0 0 1054.4 206.8;" xml:space="preserve">
<style type="text/css">
	.st0{enable-background:new    ;}
</style>
<g class="st0">
	<path d="M3,13.4h64.3c73.4,0,93.8,47.5,93.8,90c0,42.5-19.9,90.7-93.8,90.7H3V13.4z M37.5,42.9v121.7h34.1c29.5,0,55-10.3,55-61.2
		c0-50.6-25.4-60.5-55-60.5H37.5z"/>
</g>
<g class="st0">
	<path d="M204.3,134.4C205,161,216.8,173,234.1,173c14.6,0,23-6.5,26.6-19.9h31.9c-6.5,27.4-25.4,43.9-60.7,43.9
		c-41,0-60-30.2-60-65.5c0-35.3,21.1-65.5,61.4-65.5s61.4,29.5,61.4,68.4H204.3z M206,113.5h55.4C258.1,96,249.2,89,233.6,89
		C219.9,89,209.8,95.5,206,113.5z"/>
</g>
<g class="st0">
	<path d="M344,194.1h-33.1V68.9H344v18c2.9-5.8,15.1-20.9,38.4-20.9c20.4,0,31.9,9.4,38.2,23.8c4.3-7,12.2-23.8,41.5-23.8
		c38.6,0,47.3,28.8,47.3,62.4v65.8h-33.1v-67.9c0-19.2-4.1-32.9-21.8-32.9c-14.9,0-27.6,7.7-27.6,37.4v63.4h-33.1v-67.9
		c0-19.2-4.3-32.9-22.1-32.9c-12.7,0-27.6,8.2-27.6,34.6V194.1z"/>
</g>
<g class="st0">
	<path d="M557.1,134.4c0.7,26.6,12.5,38.6,29.8,38.6c14.6,0,23-6.5,26.6-19.9h31.9C639,180.5,620,197,584.7,197
		c-41,0-60-30.2-60-65.5c0-35.3,21.1-65.5,61.4-65.5c40.3,0,61.4,29.5,61.4,68.4H557.1z M558.8,113.5h55.4C610.9,96,602,89,586.4,89
		C572.7,89,562.7,95.5,558.8,113.5z"/>
</g>
<g class="st0">
	<path d="M696.8,194.1h-33.1V68.9h33.1v24.7C699,85.7,714.1,66,741.9,66v33.1c-23-1.4-45.1,9.6-45.1,36.7V194.1z"/>
</g>
<g class="st0">
	<path d="M785.1,194.1H752V68.9h33.1v24.7c2.2-7.9,17.3-27.6,45.1-27.6v33.1c-23-1.4-45.1,9.6-45.1,36.7V194.1z"/>
</g>
<g class="st0">
	<path d="M844.8,9.8h34.6v34.6h-34.6V9.8z M845.5,68.9h33.1v125.3h-33.1V68.9z"/>
</g>
<g class="st0">
	<path d="M912.5,93.3h-18V68.9h18V29.3h33.1v39.6h22.3v24.5h-22.3v65.3c0,7.4,3.4,10.8,12.2,10.8c7.4,0,12.2-0.7,12.2-0.7v27.1
		c0,0-7.9,1.2-22.1,1.2c-33.6,0-35.5-23-35.5-32.9V93.3z"/>
</g>
<g class="st0">
	<path d="M993.8,93.3h-18V68.9h18V29.3h33.1v39.6h22.3v24.5h-22.3v65.3c0,7.4,3.4,10.8,12.2,10.8c7.4,0,12.2-0.7,12.2-0.7v27.1
		c0,0-7.9,1.2-22.1,1.2c-33.6,0-35.5-23-35.5-32.9V93.3z"/>
</g>
</svg>
